<svg width="36" height="36" viewBox="0 0 36 36" fill="none" xmlns="http://www.w3.org/2000/svg">
<g clip-path="url(#clip0_204_56)">
<rect width="36" height="36" rx="3" fill="black"/>
<path d="M29.1904 32.9482C28.6533 33.4365 28.0755 33.9004 27.457 34.3398C26.8548 34.763 26.2201 35.1374 25.5527 35.4629C24.8854 35.7721 24.1937 36.0163 23.4775 36.1953C22.7777 36.3906 22.0615 36.4883 21.3291 36.4883C19.7178 36.4883 18.2041 36.2035 16.7881 35.6338C15.3721 35.0641 14.127 34.2585 13.0527 33.2168C11.9948 32.1589 11.1566 30.8812 10.5381 29.3838C9.93587 27.8701 9.63477 26.1774 9.63477 24.3057V9.85254H16.2754V24.3057C16.2754 25.1846 16.4056 25.974 16.666 26.6738C16.9427 27.3574 17.3089 27.9352 17.7646 28.4072C18.2204 28.8792 18.7493 29.2373 19.3516 29.4814C19.9701 29.7256 20.6292 29.8477 21.3291 29.8477C22.0127 29.8477 22.6556 29.693 23.2578 29.3838C23.8763 29.0583 24.4134 28.6351 24.8691 28.1143C25.3249 27.5934 25.6829 27.0075 25.9434 26.3564C26.2038 25.6891 26.334 25.0055 26.334 24.3057V9.85254H32.999V36H31.3877L29.1904 32.9482Z" fill="white"/>
</g>
<defs>
<clipPath id="clip0_204_56">
<rect width="36" height="36" rx="3" fill="white"/>
</clipPath>
</defs>
</svg>
