<svg width="412" height="412" viewBox="0 0 412 412" fill="none" xmlns="http://www.w3.org/2000/svg">
<rect width="412" height="412" rx="30" fill="black"/>
<path d="M165.91 186.8C163.31 189.6 160.01 191 156.01 191C152.01 191 148.61 189.6 145.81 186.8C143.21 184 141.91 180.7 141.91 176.9V164C141.91 160 143.21 156.7 145.81 154.1C148.61 151.3 152.01 149.9 156.01 149.9C160.01 149.9 163.31 151.3 165.91 154.1C168.71 156.7 170.11 160 170.11 164V176.9C170.11 180.7 168.71 184 165.91 186.8ZM165.91 303.8C163.31 306.6 160.01 308 156.01 308C152.01 308 148.61 306.6 145.81 303.8C143.21 301 141.91 297.7 141.91 293.9V281C141.91 277 143.21 273.7 145.81 271.1C148.61 268.3 152.01 266.9 156.01 266.9C160.01 266.9 163.31 268.3 165.91 271.1C168.71 273.7 170.11 277 170.11 281V293.9C170.11 297.7 168.71 301 165.91 303.8ZM221.105 350C218.905 350 217.405 349 216.605 347C215.805 345 216.205 343.2 217.805 341.6C251.005 306.6 267.605 263.9 267.605 213.5C267.605 163.1 251.005 120.4 217.805 85.4C216.405 83.8 216.105 82 216.905 80C217.705 78 219.105 77 221.105 77C228.905 77 235.405 79.7 240.605 85.1C256.805 102.1 269.205 121.6 277.805 143.6C286.405 165.4 290.705 188.7 290.705 213.5C290.705 238.3 286.405 261.7 277.805 283.7C269.205 305.5 256.805 324.9 240.605 341.9C235.405 347.3 228.905 350 221.105 350Z" fill="white"/>
<path d="M165.91 186.8L161.668 182.557L161.589 182.636L161.513 182.717L165.91 186.8ZM145.81 186.8L141.413 190.883L141.489 190.964L141.568 191.043L145.81 186.8ZM145.81 154.1L141.568 149.857L141.568 149.857L145.81 154.1ZM165.91 154.1L161.513 158.183L161.665 158.346L161.827 158.497L165.91 154.1ZM165.91 303.8L161.668 299.557L161.589 299.636L161.513 299.717L165.91 303.8ZM145.81 303.8L141.413 307.883L141.489 307.964L141.568 308.043L145.81 303.8ZM145.81 271.1L150.053 275.343L150.053 275.343L145.81 271.1ZM165.91 271.1L161.513 275.183L161.665 275.346L161.827 275.497L165.91 271.1ZM161.513 182.717C160.107 184.232 158.43 185 156.01 185V197C161.59 197 166.513 194.968 170.307 190.883L161.513 182.717ZM156.01 185C153.583 185 151.715 184.219 150.053 182.557L141.568 191.043C145.506 194.981 150.437 197 156.01 197V185ZM150.207 182.717C148.631 181.02 147.91 179.176 147.91 176.9H135.91C135.91 182.224 137.789 186.98 141.413 190.883L150.207 182.717ZM147.91 176.9V164H135.91V176.9H147.91ZM147.91 164C147.91 161.437 148.682 159.713 150.053 158.343L141.568 149.857C137.738 153.687 135.91 158.563 135.91 164H147.91ZM150.053 158.343C151.715 156.681 153.583 155.9 156.01 155.9V143.9C150.437 143.9 145.506 145.919 141.568 149.857L150.053 158.343ZM156.01 155.9C158.43 155.9 160.107 156.668 161.513 158.183L170.307 150.017C166.513 145.932 161.59 143.9 156.01 143.9V155.9ZM161.827 158.497C163.342 159.903 164.11 161.58 164.11 164H176.11C176.11 158.42 174.079 153.497 169.993 149.703L161.827 158.497ZM164.11 164V176.9H176.11V164H164.11ZM164.11 176.9C164.11 179.036 163.395 180.83 161.668 182.557L170.153 191.043C174.025 187.17 176.11 182.364 176.11 176.9H164.11ZM161.513 299.717C160.107 301.232 158.43 302 156.01 302V314C161.59 314 166.513 311.968 170.307 307.883L161.513 299.717ZM156.01 302C153.583 302 151.715 301.219 150.053 299.557L141.568 308.043C145.506 311.981 150.437 314 156.01 314V302ZM150.207 299.717C148.631 298.02 147.91 296.176 147.91 293.9H135.91C135.91 299.224 137.789 303.98 141.413 307.883L150.207 299.717ZM147.91 293.9V281H135.91V293.9H147.91ZM147.91 281C147.91 278.437 148.682 276.713 150.053 275.343L141.568 266.857C137.738 270.687 135.91 275.563 135.91 281H147.91ZM150.053 275.343C151.715 273.681 153.583 272.9 156.01 272.9V260.9C150.437 260.9 145.506 262.919 141.568 266.857L150.053 275.343ZM156.01 272.9C158.43 272.9 160.107 273.668 161.513 275.183L170.307 267.017C166.513 262.932 161.59 260.9 156.01 260.9V272.9ZM161.827 275.497C163.342 276.903 164.11 278.58 164.11 281H176.11C176.11 275.42 174.079 270.497 169.993 266.703L161.827 275.497ZM164.11 281V293.9H176.11V281H164.11ZM164.11 293.9C164.11 296.036 163.395 297.83 161.668 299.557L170.153 308.043C174.025 304.17 176.11 299.364 176.11 293.9H164.11ZM216.605 347L211.035 349.228L211.035 349.228L216.605 347ZM217.805 341.6L222.048 345.843L222.104 345.787L222.159 345.729L217.805 341.6ZM217.805 85.4L213.29 89.351L213.369 89.4417L213.452 89.5292L217.805 85.4ZM240.605 85.1L244.949 80.9608L244.938 80.9494L244.927 80.9381L240.605 85.1ZM277.805 143.6L272.217 145.784L272.221 145.793L272.224 145.802L277.805 143.6ZM277.805 283.7L283.387 285.902L283.39 285.893L283.394 285.884L277.805 283.7ZM240.605 341.9L244.927 346.062L244.938 346.051L244.949 346.039L240.605 341.9ZM221.105 344C220.927 344 221.225 343.968 221.659 344.258C221.858 344.391 222.005 344.54 222.098 344.662C222.187 344.778 222.201 344.832 222.176 344.772L211.035 349.228C211.796 351.131 213.059 352.947 215.002 354.242C216.936 355.532 219.084 356 221.105 356V344ZM222.176 344.772C222.156 344.72 222.183 344.771 222.198 344.909C222.213 345.056 222.208 345.246 222.163 345.452C222.064 345.895 221.871 346.02 222.048 345.843L213.563 337.357C212.14 338.78 210.947 340.605 210.448 342.848C209.945 345.115 210.264 347.301 211.035 349.228L222.176 344.772ZM222.159 345.729C256.467 309.561 273.605 265.361 273.605 213.5H261.605C261.605 262.439 245.544 303.639 213.452 337.471L222.159 345.729ZM273.605 213.5C273.605 161.639 256.467 117.439 222.159 81.2708L213.452 89.5292C245.544 123.361 261.605 164.561 261.605 213.5H273.605ZM222.321 81.449C222.268 81.3888 222.287 81.3968 222.328 81.4792C222.372 81.5668 222.421 81.6994 222.449 81.8636C222.476 82.0273 222.471 82.1619 222.46 82.2452C222.45 82.3228 222.439 82.3205 222.476 82.2283L211.335 77.7716C210.601 79.6053 210.251 81.6714 210.612 83.8364C210.974 86.0066 211.979 87.853 213.29 89.351L222.321 81.449ZM222.476 82.2283C222.557 82.0262 222.487 82.3153 222.043 82.6324C221.831 82.7834 221.609 82.8854 221.411 82.9437C221.317 82.9713 221.241 82.9856 221.187 82.9928C221.134 83 221.105 83 221.105 83V71C219.065 71 216.944 71.5276 215.068 72.8676C213.224 74.1847 212.054 75.9737 211.335 77.7716L222.476 82.2283ZM221.105 83C227.349 83 232.265 85.0887 236.284 89.2618L244.927 80.9381C238.546 74.3113 230.462 71 221.105 71V83ZM236.262 89.2392C251.921 105.671 263.899 124.506 272.217 145.784L283.394 141.416C274.511 118.694 261.69 98.5287 244.949 80.9608L236.262 89.2392ZM272.224 145.802C280.532 166.861 284.705 189.409 284.705 213.5H296.705C296.705 187.991 292.279 163.939 283.387 141.398L272.224 145.802ZM284.705 213.5C284.705 237.59 280.532 260.246 272.217 281.516L283.394 285.884C292.279 263.154 296.705 239.01 296.705 213.5H284.705ZM272.224 281.498C263.909 302.577 251.929 321.32 236.262 337.761L244.949 346.039C261.682 328.48 274.502 308.423 283.387 285.902L272.224 281.498ZM236.284 337.738C232.265 341.911 227.349 344 221.105 344V356C230.462 356 238.546 352.689 244.927 346.062L236.284 337.738Z" fill="white"/>
</svg>
