<svg width="112" height="50" viewBox="0 0 112 50" fill="none" xmlns="http://www.w3.org/2000/svg">
<g clip-path="url(#clip0_114_2)">
<path d="M19.0174 15.5833C19.0075 16.2163 18.9496 16.8797 18.8262 17.5038C18.6853 18.2064 18.5179 19.0269 18.1065 19.6111C17.4194 20.5791 16.6615 19.6173 16.4401 18.8747C15.7634 16.4462 15.8075 13.7832 15.9299 11.2863C15.9889 10.0291 16.074 8.8025 16.2116 7.5629C16.2561 7.06966 15.1163 7.25971 15.0676 7.66126C15.0675 7.73548 15.0455 7.79655 15.041 7.8533C15.0454 7.87077 15.0497 7.88824 15.0366 7.91005C14.7789 10.3849 14.5954 12.9341 14.7699 15.4316C14.659 16.4049 14.5263 17.3651 14.2277 18.3294C13.9291 19.2937 13.3945 20.4278 12.4898 20.9675C10.6719 22.012 10.508 18.4362 10.4923 17.4758C10.4651 15.5723 10.8571 13.639 10.7383 11.7398C10.6402 10.4473 10.0225 9.22822 8.67843 8.89402C7.7533 8.67845 6.88385 9.06107 6.30627 9.79783C4.6698 11.8729 4.51065 15.4176 6.81275 17.0719C6.92611 17.1551 7.27565 16.9942 7.11868 16.8847C5.92402 16.0313 5.40704 14.6203 5.49691 13.1885C5.56459 11.9662 6.06969 10.2645 7.07523 9.45868C7.81845 8.86629 8.59475 9.30424 9.04752 10.0079C9.47848 10.6985 9.57317 11.4539 9.58484 12.2485C9.61372 13.1871 9.5073 14.1037 9.44016 15.0291C9.37735 15.972 9.32768 16.8931 9.33909 17.8361C9.35076 18.6306 9.35337 19.6129 9.73625 20.3339C10.0495 20.9238 10.5288 21.4355 11.2228 21.5415C11.8774 21.6387 12.5458 21.4173 13.0443 20.9598C13.7745 20.315 14.2259 19.3684 14.5767 18.4654C14.7258 18.0945 14.8531 17.7106 14.9543 17.296C15.0924 18.152 15.3441 19.0168 15.8799 19.6813C16.4157 20.3459 17.402 20.5092 18.1145 20.0171C18.7177 19.6078 18.9463 18.7351 19.0916 18.05C19.2589 17.2295 19.3609 16.3697 19.3537 15.5184C19.3451 15.4092 19.0089 15.4741 19.0174 15.5833ZM24.8256 14.0495C24.8422 14.5647 24.0844 18.3876 23.3083 17.8755C23.0423 17.7004 23.1483 17.0064 23.1575 16.7445C23.176 16.1464 23.2164 15.5615 23.2349 14.9635C23.2582 14.1602 23.3831 12.6456 22.2964 12.4515C21.2097 12.2575 20.7846 13.1604 20.5298 14.0767C20.4024 14.5349 20.3317 14.9975 20.2785 15.4558C20.2535 14.7573 20.2417 14.0369 20.1993 13.3427C20.1957 12.9542 19.082 13.1748 19.077 13.5284C19.074 15.2354 19.1451 16.9425 19.177 18.6408C19.1725 18.6975 19.1855 18.7499 19.1766 18.8634C19.2021 19.2651 20.3288 19.0227 20.3296 18.5774C20.3172 18.2281 20.3047 17.8788 20.3097 17.5252C20.4294 16.5126 20.4967 15.513 20.7167 14.5311C20.7959 14.1776 21.021 12.8421 21.5623 12.8562C21.7631 12.8435 21.9716 13.4594 22.0279 13.6865C22.2184 14.6037 21.4723 19.2212 23.6528 18.0682C24.1947 17.7854 24.4404 17.0568 24.6073 16.5332C24.8881 15.7217 25.0949 14.8358 25.0702 13.9888C25.066 13.8972 24.8389 13.9535 24.8256 14.0495Z" fill="black"/>
<path d="M34.0164 8.75773C33.2482 7.89965 32.0415 7.44131 30.8918 7.66455C29.7107 7.86858 28.8194 8.83191 28.4753 9.95769C28.0081 11.4608 28.543 13.0168 29.2568 14.3158C30.9133 17.4204 34.3098 19.8655 34.5226 23.6384C34.5913 25.1462 33.919 27.0195 32.4501 27.694C30.7911 28.4677 28.8915 27.9087 27.6539 26.6555C24.8973 23.8692 26.2888 19.095 30.1989 18.3411C30.477 18.2742 30.5748 17.903 30.1896 17.969C27.5059 18.3742 25.2523 20.7886 25.4109 23.5584C25.5442 26.3343 28.0152 28.601 30.7901 28.5749C32.1776 28.5619 33.6011 28.032 34.6746 27.1586C35.8753 26.1476 36.2859 24.6314 36.1605 23.1105C35.8546 19.1727 32.2498 16.7511 30.6397 13.3946C30.0331 12.0965 29.1827 9.11887 30.9559 8.2642C32.1468 7.65665 33.5623 8.76005 34.0322 9.82361C34.5021 10.8872 34.504 12.1169 34.3237 13.2567C34.2773 13.5086 34.8962 13.4131 34.9294 13.2179C35.1954 11.6563 35.1093 9.9655 34.0164 8.75773ZM41.3862 18.3762C41.2878 19.5231 41.1075 20.6629 40.7826 21.7573C40.6262 22.3298 39.6946 25.0144 39.0959 23.5271C38.6948 22.5272 38.6921 21.4047 38.6762 20.3388C38.6622 19.0586 38.7807 17.7732 38.9558 16.5008C39.0252 15.7889 37.3769 16.0519 37.2772 16.6374C37.074 18.2374 36.9335 19.8758 37.0832 21.4978C37.1739 22.6526 37.5198 24.2007 38.8548 24.4142C39.8875 24.5935 40.5007 23.6971 40.8865 22.8555C41.4853 21.4545 41.739 19.8423 41.8028 18.3294C41.8168 18.1656 41.4002 18.2124 41.3862 18.3762ZM37.539 14.8362C37.5179 15.0819 37.7688 15.2355 38.0398 15.2505C38.3614 15.2533 38.955 15.1639 39.1095 14.8058C39.2892 14.4417 39.4255 14.0077 39.0562 13.6955C38.6807 13.358 38.0184 13.3837 37.5999 13.6449C37.2511 13.8625 37.1785 14.2276 37.4023 14.6017C37.4458 14.6714 37.4954 14.7664 37.539 14.8362ZM53.7549 15.5061C53.7483 16.2565 52.6152 21.7708 51.5246 21.0171C51.1421 20.7615 51.277 19.7663 51.2929 19.388C51.3258 18.5244 51.4152 17.6738 51.4227 16.8163C51.4645 15.6563 51.6602 13.4698 50.1178 13.1724C48.5249 12.8873 47.9018 14.1872 47.5244 15.5082C47.3741 16.1059 47.2552 16.7229 47.1615 17.3338C47.1381 17.1255 47.14 16.9111 47.1166 16.7028C46.9814 15.5854 46.4717 14.0233 45.0561 14.364C43.7669 14.6743 43.3362 16.329 43.0679 17.4366C42.9438 17.9211 42.8511 18.4247 42.7584 18.9284C42.7496 17.7806 42.7407 16.6328 42.6814 15.4972C42.68 14.9359 41.0692 15.2434 41.0584 15.7541C41.0368 18.2196 41.1223 20.6861 41.1512 23.1394C41.1442 23.2214 41.1624 23.2972 41.1484 23.461C41.1811 24.0415 42.8111 23.7026 42.8167 23.0595C42.8135 22.7126 42.791 22.3971 42.7878 22.0502C42.8861 20.9034 42.9845 19.7565 43.19 18.6106C43.3099 17.8864 43.4551 17.1562 43.7135 16.4522C43.8881 15.9555 44.2444 14.8803 44.8824 14.7535C45.7227 14.578 45.4899 17.3885 45.5044 17.8931C45.5114 19.2553 45.405 20.5913 45.3806 21.9343C45.2978 22.0344 45.2715 22.1477 45.2959 22.2488C45.3202 22.3499 45.3193 22.4571 45.3436 22.5582C45.4835 23.1396 47.0124 22.8251 47.0171 22.2892C47.026 21.9929 47.041 21.7218 47.0499 21.4255C47.2986 19.6809 47.4087 17.9161 47.7898 16.1664C47.9078 15.6566 48.2716 13.7238 49.028 13.7557C49.3183 13.7393 49.6131 14.631 49.6922 14.9597C49.9581 16.2863 48.8338 22.9483 51.995 21.305C52.7805 20.902 53.1429 19.852 53.4144 19.0914C53.803 17.9281 54.1106 16.6507 54.0835 15.427C54.0784 15.2946 53.7498 15.3737 53.7549 15.5061ZM61.7568 13.7139C61.3729 15.7852 60.2709 17.762 58.6759 19.1354C59.6197 17.9455 59.7977 16.3516 59.7168 14.7932C59.634 13.4493 59.2647 11.6929 57.6778 11.4331C56.4814 11.2397 55.8742 12.1613 55.531 13.1799C55.3634 13.5947 55.208 14.06 55.1092 14.5384C55.1097 13.7627 55.091 13.0184 55.0662 12.2488C55.0517 11.7442 53.6493 12.0283 53.6263 12.4884C53.424 15.4253 53.4613 18.358 53.448 21.3029C53.4217 24.3044 53.3255 27.3494 53.4569 30.3397C53.4836 30.8949 55.0438 30.5996 55.0799 30.0828C55.1498 27.1511 55.0497 24.18 55.0438 21.2665C55.0494 20.6233 55.0612 20.0054 55.0729 19.3875C55.2218 19.6726 55.4151 19.9202 55.7034 20.1182C56.1799 20.4314 56.7473 20.4553 57.2599 20.2517C57.2851 20.2456 57.2851 20.2456 57.3104 20.2396C59.9403 19.4996 61.7038 16.1602 62.1734 13.6671C62.1875 13.5033 61.8022 13.5692 61.7568 13.7139ZM55.6594 19.38C55.2232 18.7897 55.2743 18.0019 55.1161 17.3447C55.11 17.3194 55.11 17.3194 55.0786 17.3002C55.1039 17.2941 55.0978 17.2688 55.0917 17.2436C55.1821 16.2858 55.3231 15.3159 55.5459 14.353C55.7093 13.6986 55.9111 12.9815 56.2819 12.4109C56.4546 12.1286 56.7931 11.646 57.1826 11.8197C57.4213 11.9227 57.55 12.3463 57.6048 12.5738C58.0171 13.7315 58.1191 15.0441 58.0703 16.286C58.0497 17.2002 57.831 18.4027 57.3826 19.206C56.9472 19.9526 56.2455 20.1482 55.6594 19.38ZM63.1961 6.09349C63.2996 5.07911 63.4031 4.06472 63.5066 3.05034C63.5961 2.19979 63.7553 1.30571 63.7062 0.43503C63.6987 -0.15151 62.2195 0.258014 62.1146 0.711136C61.9179 1.56074 61.9034 2.50023 61.82 3.37606C61.7095 4.47236 61.599 5.56867 61.4884 6.66497C61.2735 8.88285 61.1151 11.1138 61.0893 13.3397C61.0742 15.0548 61.2444 20.095 64.2497 18.2484C65.9804 17.2168 65.8621 14.1699 65.9399 12.4931C65.9539 12.3293 65.5939 12.3892 65.5738 12.5277C65.4876 13.7252 65.3509 14.9347 65.0503 16.1303C64.9 16.728 64.6912 17.5271 64.1645 17.8945C63.2629 18.5929 63.0214 17.3674 62.9199 16.7233C62.3574 13.2752 62.8758 9.54015 63.1961 6.09349ZM71.0606 11.1804C70.8803 12.3202 70.7819 13.4671 70.4065 14.5737C70.1087 15.4476 69.4636 17.1005 68.3289 17.0527C66.7907 16.995 66.574 15.095 66.6158 13.935C66.6205 13.399 66.6949 12.8195 66.8007 12.2592C67.4893 12.1202 68.1849 11.8993 68.6437 11.361C69.0388 10.8915 69.463 9.98711 69.1531 9.36639C68.8868 8.81541 68.0606 8.82707 67.5358 8.98012C66.8402 9.20103 66.2995 9.73231 65.9156 10.3596C64.559 12.6116 64.1444 18.8889 68.4829 17.4702C70.7851 16.7022 71.3015 13.1816 71.4266 11.1458C71.4407 10.9819 71.0807 11.0418 71.0606 11.1804ZM67.6912 9.95894C67.768 9.83349 67.9215 9.58259 68.0924 9.51472C68.4786 9.34154 68.7327 9.84196 68.6854 10.201C68.5941 11.2659 67.752 11.6558 66.8794 11.9193C67.0559 11.2083 67.3204 10.5295 67.6912 9.95894Z" fill="black"/>
<path d="M20.172 23.5883C16.9169 23.3553 14.0953 25.4519 12.3662 28.0884C12.2316 28.2632 12.68 28.2836 12.7697 28.1671C14.2888 26.1347 16.3918 24.1576 19.0977 24.1997C21.4875 24.2304 23.3629 25.9533 23.645 28.3288C24.167 32.3511 20.8874 37.1813 16.7891 37.3199C16.8139 37.107 16.8387 36.894 16.8893 36.6777C17.487 32.7985 17.9782 28.9069 18.3114 25.0096C18.3701 24.4514 16.7099 24.5882 16.6355 25.2271C16.2812 28.7601 15.8687 32.2482 15.3273 35.753C15.2777 36.179 15.2057 36.634 15.137 37.1148C15.0014 37.08 14.84 37.0485 14.701 36.9879C12.1167 36.0648 10.7253 33.0206 11.8389 30.4902C11.9411 30.2672 11.3156 30.296 11.2101 30.4932C10.0932 32.9978 11.358 35.8749 13.7437 37.0859C14.1672 37.3194 14.6323 37.4687 15.0683 37.5957C14.6213 40.6163 13.7839 44.2645 10.3537 44.4999C10.0151 44.5176 9.90727 44.8987 10.3232 44.8709C12.5482 44.8443 15.0243 43.3169 15.9044 41.2101C16.3703 40.1534 16.5549 38.9496 16.7171 37.775C18.3167 37.7771 19.9233 37.2278 21.2769 36.3442C23.7877 34.6812 25.4351 31.8194 25.4113 28.8074C25.3616 25.7988 23.0818 23.7875 20.172 23.5883ZM25.2649 35.8267C25.8093 36.3852 26.1221 36.3709 27.1625 36.1047C26.8184 37.6963 25.8922 41.6705 28.4907 41.4906C29.374 41.4284 29.9584 40.8806 30.2839 40.1567C30.8777 38.8736 31.4642 36.7263 31.677 35.3353C31.7118 35.1997 31.3991 35.2141 31.3609 35.3239C31.2225 36.076 30.1924 41.2697 28.6692 41.0479C27.9496 40.9578 28.3194 39.3629 28.359 38.8597C28.4381 37.8531 28.6203 36.8332 28.8317 35.8357C28.9419 35.2708 27.9129 35.2208 27.424 35.494C27.0597 35.5151 26.8692 35.4611 26.6194 35.1527C26.669 34.7268 26.6178 34.1304 26.4354 33.7346C26.2037 33.1617 25.5434 33.326 25.171 33.689C24.6124 34.2334 24.7205 35.2681 25.2649 35.8267ZM26.1752 33.9519C26.1919 34.0808 26.2344 34.2064 26.2511 34.3353C26.2578 34.3869 26.2388 34.4418 26.2454 34.4934C26.2588 34.5965 26.2307 34.7837 26.2374 34.8352C26.0549 34.4394 26.1146 34.0909 26.1136 33.8812C26.1484 33.7456 26.1226 33.749 26.1752 33.9519ZM37.8881 34.7652C37.6467 35.5306 37.2505 36.3162 36.5496 36.7742C36.212 37.0015 35.8802 37.0708 35.5607 37.0336C35.6934 36.4396 35.8003 35.8489 35.8813 35.2616L35.878 35.2358C35.9136 33.8941 35.676 32.0634 34.0081 31.9391C31.9984 31.8066 31.0767 33.9975 30.7685 35.663C30.476 37.2478 30.1141 40.5196 32.4051 40.799C33.3926 40.9331 34.1956 40.2521 34.64 39.4341C35.0014 38.7841 35.2754 38.0669 35.4686 37.334C36.7655 37.4278 37.884 35.9455 38.2558 34.7699C38.2906 34.6343 37.9488 34.6262 37.8881 34.7652ZM34.8146 38.1529C34.6237 38.7021 34.407 39.2546 34.0738 39.7173C33.8079 40.0926 33.3558 40.6495 32.734 40.1009C32.5592 39.9663 32.4966 39.686 32.4441 39.4831C32.1411 38.1591 32.2149 36.7075 32.486 35.3614C32.6468 34.5802 33.0089 32.7242 33.9103 32.3975C33.9361 32.3941 33.9877 32.3874 34.0101 32.3583C33.622 32.8019 33.4903 33.6056 33.4541 34.1346C33.3335 35.2252 33.6063 36.3172 34.5575 36.9803C34.7323 37.1149 34.9004 37.198 35.0909 37.2519C35.0246 37.5489 34.9325 37.8492 34.8146 38.1529ZM35.1573 36.9549C34.7404 36.773 34.3516 36.404 34.1076 35.9375C33.7885 35.2972 33.7621 34.4879 33.9072 33.7874C33.9601 33.3873 34.0794 32.6901 34.4036 32.3597C35.3013 32.6102 35.4334 34.6381 35.4655 35.2894C35.381 35.8509 35.2932 36.3866 35.1573 36.9549ZM42.2743 31.3906C42.2686 31.5487 42.2596 31.6809 42.2538 31.839C41.5346 31.1458 39.9585 31.3241 39.1612 31.8471C37.7852 32.7598 37.2349 34.378 37.0456 35.9495C36.8686 37.4144 36.9291 39.2943 38.6405 39.7539C39.9159 40.0865 40.6921 39.1992 41.1838 38.1391C41.4711 37.525 41.6811 36.921 41.862 36.2945C41.6331 38.3692 41.3493 40.4248 41.0398 42.4838C40.7798 44.1168 40.5265 45.8014 39.8888 47.3524C39.5318 48.2377 38.947 49.3885 37.8115 49.3262C36.6761 49.2638 36.3855 47.8333 36.2493 46.9857C36.2326 46.8568 35.8683 46.8779 35.8592 47.0102C35.6083 48.5109 36.8853 49.8659 38.4099 49.6942C40.347 49.469 41.2396 47.2557 41.7932 45.6632C42.5726 43.386 42.9576 40.8978 43.2786 38.5227C43.6187 36.0927 43.8489 33.6245 43.976 31.1698C44.0056 30.5891 42.2938 30.7326 42.2743 31.3906ZM41.1511 36.6751C40.9063 37.4148 40.6356 38.1578 40.1678 38.7953C39.6966 39.407 39.3547 39.399 38.9998 38.6847C38.3842 37.3751 38.6408 35.7162 39.015 34.3568C39.1767 33.7852 39.3676 33.2361 39.6975 32.7475C39.9152 32.4047 40.152 32.0069 40.5187 31.802C41.3036 31.3855 41.9578 31.9823 42.1064 32.7233C41.8579 34.0403 41.5611 35.3897 41.1511 36.6751ZM44.9049 33.2778C45.4493 33.8363 45.762 33.822 46.8024 33.5559C46.4584 35.1474 45.5322 39.1216 48.1307 38.9417C49.014 38.8795 49.5984 38.3317 49.9239 37.6078C50.5177 36.3247 51.1042 34.1774 51.317 32.7864C51.3518 32.6508 51.039 32.6652 51.0009 32.775C50.8625 33.5271 49.8324 38.7208 48.3092 38.499C47.5896 38.4089 47.9594 36.814 47.999 36.3108C48.0781 35.3042 48.2603 34.2843 48.4717 33.2868C48.5819 32.7219 47.5529 32.6719 47.064 32.9451C46.6997 32.9662 46.5092 32.9122 46.2594 32.6038C46.309 32.1779 46.2578 31.5815 46.0753 31.1857C45.8437 30.6128 45.1833 30.7771 44.811 31.1401C44.2524 31.6845 44.3604 32.7192 44.9049 33.2778ZM45.8152 31.403C45.8319 31.5319 45.8744 31.6575 45.8911 31.7864C45.8978 31.838 45.8787 31.8929 45.8854 31.9445C45.8988 32.0476 45.8707 32.2348 45.8774 32.2864C45.6949 31.8905 45.7545 31.542 45.7535 31.3324C45.7884 31.1967 45.7626 31.2001 45.8152 31.403ZM59.5965 31.7905C59.4233 32.6782 58.4448 37.8653 56.9196 37.2243C55.892 36.7808 56.4541 34.2434 56.5824 33.414C56.8018 32.0746 57.1278 30.7476 57.4828 29.4431C57.6794 28.7359 56.0484 28.8951 55.825 29.396C55.7835 29.4801 55.7677 29.5608 55.7228 29.619C55.6847 29.7289 55.6914 29.7804 55.7272 29.8544C55.6699 30.0192 55.6384 30.1806 55.6069 30.342C55.0381 29.3933 53.2265 29.576 52.3552 30.1347C50.9792 31.0474 50.4289 32.6657 50.2396 34.2371C50.0627 35.7021 50.0973 37.5853 51.8087 38.0449C53.1099 38.3741 53.8862 37.4869 54.3778 36.4268C54.6427 35.8418 54.8561 35.2635 55.0403 34.6628C55.0279 34.7693 55.0379 34.8467 55.0256 34.9531C55.0663 36.0752 55.4552 37.86 56.935 37.7466C57.686 37.6754 58.2279 37.002 58.5701 36.407C59.3893 35.0423 59.7491 33.3701 59.99 31.7919C59.9957 31.6339 59.6314 31.6549 59.5965 31.7905ZM54.3451 34.9628C54.1003 35.7025 53.8297 36.4455 53.3618 37.083C52.8906 37.6947 52.5488 37.6866 52.1939 36.9724C51.5782 35.6627 51.8348 34.0039 52.209 32.6444C52.3708 32.0729 52.5617 31.5237 52.8916 31.0352C53.1092 30.6923 53.346 30.2946 53.7127 30.0897C54.4976 29.6732 55.1519 30.2699 55.3005 31.011C55.0519 32.3279 54.7551 33.6773 54.3451 34.9628ZM72.1756 30.3415C72.0889 31.0869 70.3726 36.4484 69.3688 35.5824C69.0159 35.2873 69.2564 34.3123 69.3127 33.9379C69.4377 33.0827 69.6176 32.2466 69.7167 31.3948C69.8823 30.2459 70.3107 28.0929 68.809 27.6323C67.2556 27.1785 66.4971 28.4043 65.9806 29.6773C65.7673 30.2556 65.5831 30.8563 65.4246 31.4537C65.4236 31.244 65.4484 31.0311 65.4475 30.8215C65.4325 29.696 65.0928 28.0884 63.6489 28.2758C62.3339 28.4464 61.7287 30.0456 61.3435 31.1181C61.1683 31.5866 61.0223 32.0774 60.8763 32.5683C60.9902 31.4261 61.1042 30.284 61.1665 29.1485C61.2252 28.5903 59.5908 28.7238 59.5254 29.2304C59.2403 31.6795 59.0616 34.1409 58.828 36.5833C58.8122 36.664 58.8223 36.7414 58.7908 36.9028C58.7613 37.4834 60.4181 37.3208 60.4925 36.6819C60.5263 36.3367 60.5378 36.0206 60.5716 35.6754C60.792 34.5456 61.0125 33.4158 61.3394 32.2985C61.536 31.5913 61.7584 30.8807 62.0906 30.2084C62.3174 29.7333 62.7866 28.7023 63.4345 28.6444C64.2887 28.5598 63.7568 31.3293 63.7172 31.8326C63.5784 33.1877 63.3299 34.5046 63.162 35.8373C63.0689 35.9281 63.0307 36.0379 63.0441 36.141C63.0575 36.2442 63.0451 36.3506 63.0585 36.4538C63.1354 37.0468 64.6892 36.8976 64.7512 36.3652C64.7917 36.0715 64.8356 35.8036 64.8761 35.51C65.3099 33.802 65.6081 32.0591 66.1741 30.3601C66.3459 29.8659 66.9143 27.9831 67.6631 28.0956C67.9534 28.1104 68.1512 29.0286 68.1947 29.3638C68.3171 30.7112 66.4869 37.2149 69.8058 35.9189C70.6299 35.6022 71.1024 34.5971 71.4537 33.8698C71.9645 32.7548 72.4069 31.5176 72.5108 30.298C72.5199 30.1658 72.1847 30.2093 72.1756 30.3415ZM80.7473 29.0456C80.5741 29.9333 79.5955 35.1203 78.0703 34.4793C77.0427 34.0359 77.6048 31.4984 77.7332 30.669C77.9526 29.3296 78.2785 28.0026 78.6336 26.6981C78.8302 25.9909 77.1991 26.1502 76.9757 26.6511C76.9342 26.7351 76.9185 26.8158 76.8736 26.8741C76.8354 26.9839 76.8421 27.0355 76.8779 27.1095C76.8206 27.2742 76.7892 27.4356 76.7577 27.597C76.1888 26.6483 74.3773 26.831 73.506 27.3898C72.13 28.3025 71.5797 29.9207 71.3903 31.4922C71.2134 32.9571 71.2481 34.8403 72.9595 35.2999C74.2607 35.6292 75.0369 34.7419 75.5286 33.6818C75.7935 33.0968 76.0068 32.5186 76.1911 31.9179C76.1787 32.0243 76.1887 32.1017 76.1763 32.2082C76.2171 33.3303 76.606 35.1151 78.0857 35.0017C78.8368 34.9304 79.3786 34.2571 79.7209 33.6621C80.5401 32.2973 80.8998 30.6251 81.1407 29.047C81.1464 28.8889 80.7821 28.91 80.7473 29.0456ZM75.4959 32.2178C75.251 32.9575 74.9804 33.7005 74.5126 34.338C74.0414 34.9497 73.6995 34.9417 73.3446 34.2274C72.729 32.9178 72.9856 31.2589 73.3597 29.8995C73.5215 29.3279 73.7124 28.7788 74.0423 28.2902C74.26 27.9474 74.4968 27.5496 74.8634 27.3447C75.6484 26.9282 76.3026 27.525 76.4512 28.266C76.2026 29.583 75.9058 30.9324 75.4959 32.2178ZM87.7919 21.3146C88.0032 20.3171 88.2146 19.3196 88.426 18.3221C88.6059 17.486 88.8856 16.6108 88.9298 15.7398C88.9594 15.1592 87.4706 15.4048 87.2921 15.8475C87.0057 16.6712 86.8908 17.6037 86.7142 18.4656C86.4871 19.5438 86.26 20.622 86.0329 21.7002C85.7304 23.2077 85.4279 24.7152 85.2061 26.2384C84.4902 25.571 82.9398 25.746 82.1425 26.2689C80.7665 27.1816 80.2162 28.7999 80.0269 30.3713C79.85 31.8363 79.8846 33.7195 81.596 34.179C82.8972 34.5083 83.6735 33.621 84.1651 32.5609C84.4334 32.0018 84.621 31.4268 84.8052 30.8261C84.8881 32.6769 85.4384 34.4931 87.5654 33.5092C89.3707 32.6719 89.5789 29.6298 89.8355 27.971C89.867 27.8096 89.5027 27.8306 89.4937 27.9629C89.2541 29.1476 88.9888 30.3356 88.5621 31.4921C88.3488 32.0704 88.0557 32.8426 87.4928 33.1516C86.5475 33.7462 86.4126 32.5052 86.3806 31.8539C86.19 28.3654 87.1048 24.7073 87.7919 21.3146ZM85.0057 27.5229C84.7695 28.7333 84.5076 29.9471 84.1324 31.097C83.8876 31.8366 83.617 32.5796 83.1491 33.2172C82.6779 33.8289 82.3361 33.8208 81.9812 33.1066C81.3655 31.7969 81.6221 30.1381 81.9963 28.7786C82.1581 28.207 82.349 27.6579 82.6789 27.1694C82.8965 26.8265 83.1333 26.4287 83.5 26.2238C84.2591 25.8107 84.91 26.3817 85.0811 27.0936C85.0462 27.2292 85.0405 27.3872 85.0057 27.5229ZM96.0275 27.2198C95.786 27.9853 95.3898 28.7708 94.6889 29.2288C94.3514 29.4561 94.0196 29.5254 93.7001 29.4882C93.8328 28.8942 93.9396 28.3035 94.0207 27.7162L94.0174 27.6904C94.053 26.3487 93.8154 24.518 92.1475 24.3937C90.1378 24.2612 89.2161 26.4521 88.9079 28.1176C88.6154 29.7024 88.2535 32.9742 90.5445 33.2537C91.5319 33.3877 92.335 32.7067 92.7794 31.8887C93.1408 31.2388 93.4147 30.5215 93.608 29.7886C94.9049 29.8824 96.0234 28.4002 96.3952 27.2245C96.43 27.0889 96.0881 27.0808 96.0275 27.2198ZM92.954 30.6076C92.7631 31.1567 92.5464 31.7092 92.2131 32.1719C91.9472 32.5473 91.4951 33.1041 90.8734 32.5555C90.6986 32.4209 90.636 32.1406 90.5834 31.9377C90.2805 30.6137 90.3543 29.1621 90.6253 27.816C90.7861 27.0348 91.1483 25.1788 92.0497 24.8521C92.0755 24.8487 92.1271 24.842 92.1495 24.8129C91.7614 25.2565 91.6297 26.0602 91.5935 26.5892C91.4728 27.6798 91.7457 28.7718 92.6969 29.4349C92.8717 29.5695 93.0398 29.6526 93.2303 29.7065C93.164 30.0035 93.0719 30.3039 92.954 30.6076ZM93.2966 29.4095C92.8798 29.2276 92.491 28.8586 92.247 28.3921C91.9279 27.7519 91.9015 26.9425 92.0466 26.242C92.0995 25.8419 92.2188 25.1447 92.5429 24.8143C93.4407 25.0648 93.5727 27.0927 93.6048 27.744C93.5204 28.3055 93.4326 28.8413 93.2966 29.4095ZM95.5156 26.7095C96.06 27.268 96.3727 27.2537 97.4132 26.9875C97.0691 28.5791 96.1429 32.5533 98.7414 32.3734C99.6247 32.3112 100.209 31.7634 100.535 31.0395C101.128 29.7564 101.715 27.6091 101.928 26.2181C101.963 26.0825 101.65 26.0969 101.612 26.2067C101.473 26.9588 100.443 32.1525 98.9199 31.9307C98.2003 31.8406 98.5701 30.2457 98.6097 29.7425C98.6888 28.7359 98.871 27.716 99.0824 26.7185C99.1926 26.1536 98.1636 26.1036 97.6747 26.3768C97.3104 26.3979 97.1199 26.3439 96.8701 26.0355C96.9197 25.6096 96.8685 25.0132 96.6861 24.6174C96.4544 24.0445 95.7941 24.2088 95.4217 24.5718C94.8631 25.1162 94.9712 26.1509 95.5156 26.7095ZM96.4259 24.8347C96.4426 24.9636 96.4851 25.0892 96.5018 25.2181C96.5085 25.2697 96.4894 25.3246 96.4961 25.3762C96.5095 25.4793 96.4814 25.6665 96.4881 25.718C96.3056 25.3222 96.3652 24.9737 96.3643 24.764C96.3991 24.6284 96.3733 24.6318 96.4259 24.8347Z" fill="black"/>
<path d="M85.6026 39.3956C85.4466 38.937 85.4599 38.491 85.6426 38.0575C85.8252 37.6241 86.1828 37.3168 86.7154 37.1356C87.1666 36.9822 87.609 37.0092 88.0426 37.2165C88.4762 37.4239 88.7722 37.7605 88.9307 38.2265C89.0892 38.6925 89.0611 39.1435 88.8463 39.5797C88.6415 40.0207 88.3097 40.3192 87.8512 40.4751C87.326 40.6537 86.8552 40.6282 86.4388 40.3985C86.0322 40.1737 85.7535 39.8394 85.6026 39.3956ZM95.6909 34.083C96.2161 33.9044 96.6782 33.9287 97.0774 34.1561C97.479 34.3908 97.7591 34.7412 97.9176 35.2071C98.071 35.6583 98.0552 36.0969 97.87 36.523C97.6922 36.9466 97.3445 37.2464 96.8267 37.4225C96.4125 37.5633 95.9712 37.5154 95.5029 37.2786C95.0345 37.0418 94.7298 36.7163 94.589 36.3021C94.4355 35.8509 94.4699 35.406 94.692 34.9674C94.9142 34.5287 95.2471 34.2339 95.6909 34.083ZM95.224 47.4862C93.5968 48.0397 92.01 48.3359 90.4637 48.375C88.9199 48.4214 87.2734 48.2511 85.5244 47.864C84.5422 47.6451 83.8986 47.4267 83.5933 47.2087C83.2881 46.9906 83.0513 46.6338 82.8827 46.1383C82.7569 45.7685 82.7939 45.5496 82.9936 45.4817C83.0602 45.459 83.4717 45.4923 84.2283 45.5816C84.9774 45.6734 85.8561 45.7335 86.8642 45.762C87.8749 45.7978 89.0246 45.7328 90.3132 45.5668C91.6117 45.4057 92.9267 45.0988 94.258 44.646C95.5968 44.1907 96.8299 43.631 97.9574 42.967C99.0849 42.3029 100.036 41.6536 100.81 41.0188C101.585 40.3841 102.244 39.8008 102.79 39.2688C103.342 38.7342 103.648 38.4569 103.707 38.4368C103.907 38.3688 104.07 38.5198 104.195 38.8896C104.372 39.4074 104.408 39.8407 104.303 40.1897C104.207 40.5362 103.831 41.0931 103.176 41.8605C102.6 42.5434 102.015 43.1671 101.423 43.7315C100.831 44.2959 100.221 44.8049 99.5908 45.2584C98.9636 45.7192 98.288 46.1347 97.5639 46.5048C96.8398 46.8748 96.0598 47.202 95.224 47.4862Z" fill="black"/>
</g>
<defs>
<clipPath id="clip0_114_2">
<rect width="112" height="50" fill="white"/>
</clipPath>
</defs>
</svg>
