<svg width="115" height="54" viewBox="0 0 115 54" fill="none" xmlns="http://www.w3.org/2000/svg">
<g clip-path="url(#clip0_206_16)">
<path d="M38.7148 38.3379C38.0703 38.9238 37.377 39.4805 36.6348 40.0078C35.9121 40.5156 35.1504 40.9648 34.3496 41.3555C33.5488 41.7266 32.7188 42.0195 31.8594 42.2344C31.0195 42.4688 30.1602 42.5859 29.2812 42.5859C27.3477 42.5859 25.5312 42.2441 23.832 41.5605C22.1328 40.877 20.6387 39.9102 19.3496 38.6602C18.0801 37.3906 17.0742 35.8574 16.332 34.0605C15.6094 32.2441 15.248 30.2129 15.248 27.9668V10.623H23.2168V27.9668C23.2168 29.0215 23.373 29.9688 23.6855 30.8086C24.0176 31.6289 24.457 32.3223 25.0039 32.8887C25.5508 33.4551 26.1855 33.8848 26.9082 34.1777C27.6504 34.4707 28.4414 34.6172 29.2812 34.6172C30.1016 34.6172 30.873 34.4316 31.5957 34.0605C32.3379 33.6699 32.9824 33.1621 33.5293 32.5371C34.0762 31.9121 34.5059 31.209 34.8184 30.4277C35.1309 29.627 35.2871 28.8066 35.2871 27.9668V10.623H43.2852V42H41.3516L38.7148 38.3379ZM66.6348 42H48.3535V34.0312H66.6348C67.1816 34.0312 67.6504 33.8359 68.041 33.4453C68.4316 33.0547 68.627 32.5859 68.627 32.0391C68.627 31.4727 68.4316 31.1016 68.041 30.9258C67.6504 30.75 67.1816 30.6621 66.6348 30.6621H58.3145C56.9277 30.6621 55.6289 30.3984 54.418 29.8711C53.207 29.3438 52.1523 28.6309 51.2539 27.7324C50.3555 26.8145 49.6426 25.75 49.1152 24.5391C48.6074 23.3281 48.3535 22.0293 48.3535 20.6426C48.3535 19.2559 48.6074 17.957 49.1152 16.7461C49.6426 15.5352 50.3555 14.4805 51.2539 13.582C52.1523 12.6836 53.207 11.9805 54.418 11.4727C55.6289 10.9453 56.9277 10.6816 58.3145 10.6816H74.5156V18.6504H58.3145C57.7676 18.6504 57.2988 18.8457 56.9082 19.2363C56.5176 19.627 56.3223 20.0957 56.3223 20.6426C56.3223 21.209 56.5176 21.6973 56.9082 22.1074C57.2988 22.498 57.7676 22.6934 58.3145 22.6934H66.6348C68.002 22.6934 69.291 22.9277 70.502 23.3965C71.7129 23.8457 72.7676 24.4805 73.666 25.3008C74.5645 26.1211 75.2773 27.1074 75.8047 28.2598C76.332 29.4121 76.5957 30.6719 76.5957 32.0391C76.5957 33.4258 76.332 34.7246 75.8047 35.9355C75.2773 37.127 74.5645 38.1816 73.666 39.0996C72.7676 39.998 71.7129 40.7109 70.502 41.2383C69.291 41.7461 68.002 42 66.6348 42ZM88.9297 53.9531H80.873V10.623H82.8066L86 14.4023C86.7227 13.7188 87.5137 13.0742 88.373 12.4688C89.2324 11.8633 90.1211 11.3457 91.0391 10.916C91.9766 10.4668 92.9434 10.1152 93.9395 9.86133C94.9355 9.60742 95.9414 9.48047 96.957 9.48047C99.1641 9.48047 101.234 9.88086 103.168 10.6816C105.121 11.4629 106.82 12.5762 108.266 14.0215C109.73 15.4668 110.883 17.2148 111.723 19.2656C112.562 21.2969 112.982 23.5527 112.982 26.0332C112.982 28.6113 112.562 30.9355 111.723 33.0059C110.883 35.0566 109.73 36.8047 108.266 38.25C106.82 39.6758 105.121 40.7695 103.168 41.5312C101.234 42.293 99.1641 42.6738 96.957 42.6738C96.2539 42.6738 95.5508 42.5957 94.8477 42.4395C94.1641 42.2832 93.4805 42.0781 92.7969 41.8242C92.1328 41.5508 91.4688 41.248 90.8047 40.916C90.1602 40.584 89.5352 40.2422 88.9297 39.8906V53.9531ZM104.955 26.0332C104.955 24.7051 104.74 23.5137 104.311 22.459C103.9 21.4043 103.334 20.5156 102.611 19.793C101.889 19.0508 101.039 18.4844 100.062 18.0938C99.0859 17.7031 98.0508 17.5078 96.957 17.5078C95.8633 17.5078 94.8281 17.7031 93.8516 18.0938C92.8945 18.4844 92.0547 19.0508 91.332 19.793C90.6094 20.5156 90.0332 21.4043 89.6035 22.459C89.1934 23.5137 88.9883 24.7051 88.9883 26.0332C88.9883 27.3027 89.1934 28.4648 89.6035 29.5195C90.0332 30.5742 90.6094 31.4727 91.332 32.2148C92.0547 32.957 92.8945 33.5332 93.8516 33.9434C94.8281 34.3535 95.8633 34.5586 96.957 34.5586C98.0508 34.5586 99.0859 34.3535 100.062 33.9434C101.039 33.5332 101.889 32.957 102.611 32.2148C103.334 31.4727 103.9 30.5742 104.311 29.5195C104.74 28.4648 104.955 27.3027 104.955 26.0332Z" fill="white"/>
</g>
<defs>
<clipPath id="clip0_206_16">
<rect width="115" height="54" rx="2" fill="white"/>
</clipPath>
</defs>
</svg>
